<?xml version="1.0" encoding="UTF-8"?>
<!DOCTYPE svg PUBLIC "-//W3C//DTD SVG 1.1//EN" "http://www.w3.org/Graphics/SVG/1.1/DTD/svg11.dtd">
<svg xmlns="http://www.w3.org/2000/svg" version="1.1" width="800px" height="600px" style="shape-rendering:geometricPrecision; text-rendering:geometricPrecision; image-rendering:optimizeQuality; fill-rule:evenodd; clip-rule:evenodd" xmlns:xlink="http://www.w3.org/1999/xlink">
<g><path style="opacity:1" fill="#c89a6e" d="M 416.5,286.5 C 453.416,251.085 489.916,215.085 526,178.5C 526.169,195.005 526.669,211.338 527.5,227.5C 528.21,229.746 528.71,232.08 529,234.5C 548.665,213.835 568.665,193.501 589,173.5C 589.87,174.108 590.37,174.941 590.5,176C 589.702,186.133 589.202,196.299 589,206.5C 568.632,227.035 548.132,247.368 527.5,267.5C 519.833,274.833 512.167,282.167 504.5,289.5C 501.656,290.058 498.822,290.725 496,291.5C 491.539,290.655 487.039,290.322 482.5,290.5C 482.249,293.909 482.583,297.242 483.5,300.5C 483.062,301.506 482.396,301.506 481.5,300.5C 480.614,301.325 480.281,302.325 480.5,303.5C 478.24,302.861 476.24,301.694 474.5,300C 471.329,295.769 471.995,294.436 476.5,296C 477.071,297.205 477.738,298.372 478.5,299.5C 478.833,298.833 479.167,298.167 479.5,297.5C 478.641,294.949 477.641,292.449 476.5,290C 484.03,287.862 490.03,283.195 494.5,276C 493.101,275.405 491.768,275.572 490.5,276.5C 487.772,279.895 484.772,282.895 481.5,285.5C 479.955,286.452 478.288,286.785 476.5,286.5C 485.8,277.034 495.3,267.701 505,258.5C 505.284,251.023 505.45,243.689 505.5,236.5C 505.564,234.611 505.064,232.944 504,231.5C 469.32,266.347 434.486,301.014 399.5,335.5C 363.875,301.376 328.709,266.709 294,231.5C 293.727,233.101 293.227,234.601 292.5,236C 293.649,241.437 293.649,246.937 292.5,252.5C 292.515,254.634 293.015,256.634 294,258.5C 305.672,269.006 316.839,280.006 327.5,291.5C 326.821,293.814 325.488,294.147 323.5,292.5C 322.062,295.823 320.229,296.156 318,293.5C 317.333,296.5 317.333,299.5 318,302.5C 319.011,301.663 320.178,301.33 321.5,301.5C 321.097,304.406 319.431,306.239 316.5,307C 317.448,307.483 318.448,307.649 319.5,307.5C 319.712,312.443 318.712,313.11 316.5,309.5C 314.717,311.023 314.051,313.023 314.5,315.5C 314.083,312.841 313.083,310.508 311.5,308.5C 305.08,303.084 299.413,297.084 294.5,290.5C 287.139,282.138 279.139,274.472 270.5,267.5C 250.562,248.062 230.728,228.396 211,208.5C 209.867,197.688 209.034,186.854 208.5,176C 209.025,175.308 209.692,174.808 210.5,174.5C 230.18,193.68 249.68,213.013 269,232.5C 270.064,231.056 270.564,229.389 270.5,227.5C 269.505,210.244 269.172,193.078 269.5,176C 269.63,174.941 270.13,174.108 271,173.5C 313.653,216.986 356.486,260.319 399.5,303.5C 404.827,297.506 410.494,291.839 416.5,286.5 Z"/></g>
<g><path style="opacity:0.925" fill="#c19e7d" d="M 527.5,227.5 C 526.669,211.338 526.169,195.005 526,178.5C 489.916,215.085 453.416,251.085 416.5,286.5C 453.132,249.368 489.965,212.368 527,175.5C 527.5,192.83 527.667,210.163 527.5,227.5 Z"/></g>
<g><path style="opacity:1" fill="#775b3f" d="M 527.5,267.5 C 528.239,271.015 528.239,274.348 527.5,277.5C 519.412,284.922 511.745,292.588 504.5,300.5C 504.5,297.5 504.5,294.5 504.5,291.5C 504.5,290.833 504.5,290.167 504.5,289.5C 512.167,282.167 519.833,274.833 527.5,267.5 Z"/></g>
<g><path style="opacity:1" fill="#8b6949" d="M 270.5,267.5 C 279.139,274.472 287.139,282.138 294.5,290.5C 293.518,293.962 293.185,297.629 293.5,301.5C 287.861,298.189 283.528,293.522 280.5,287.5C 277.127,284.456 273.793,281.456 270.5,278.5C 269.669,274.755 269.669,271.088 270.5,267.5 Z"/></g>
<g><path style="opacity:1" fill="#c6996d" d="M 270.5,278.5 C 273.793,281.456 277.127,284.456 280.5,287.5C 283.528,293.522 287.861,298.189 293.5,301.5C 293.305,328.205 293.305,354.872 293.5,381.5C 292.448,381.649 291.448,381.483 290.5,381C 283.329,374.163 276.496,366.996 270,359.5C 269.405,332.296 269.572,305.296 270.5,278.5 Z"/></g>
<g><path style="opacity:1" fill="#c7996e" d="M 527.5,285.5 C 527.667,310.836 527.5,336.169 527,361.5C 519.946,368.554 512.946,375.554 506,382.5C 505.5,358.502 505.333,334.502 505.5,310.5C 506.165,308.631 506.831,306.631 507.5,304.5C 514.045,298.79 520.045,292.623 525.5,286C 526.094,285.536 526.761,285.369 527.5,285.5 Z"/></g>
<g><path style="opacity:1" fill="#9e7955" d="M 527.5,277.5 C 527.5,280.167 527.5,282.833 527.5,285.5C 526.761,285.369 526.094,285.536 525.5,286C 520.045,292.623 514.045,298.79 507.5,304.5C 506.831,306.631 506.165,308.631 505.5,310.5C 504.949,307.193 504.616,303.86 504.5,300.5C 511.745,292.588 519.412,284.922 527.5,277.5 Z"/></g>
<g><path style="opacity:1" fill="#c8996e" d="M 327.5,291.5 C 351.839,315.173 375.839,339.173 399.5,363.5C 411.939,350.981 424.605,338.648 437.5,326.5C 439.331,327.052 440.997,327.052 442.5,326.5C 445.069,330.26 445.736,334.26 444.5,338.5C 441.167,338.5 437.833,338.5 434.5,338.5C 434.244,340.792 434.577,342.959 435.5,345C 437.445,344.872 439.278,345.038 441,345.5C 442.555,343.485 444.389,343.152 446.5,344.5C 443.755,347.079 441.589,350.079 440,353.5C 438.114,356.242 435.614,357.909 432.5,358.5C 432.649,359.552 432.483,360.552 432,361.5C 428.439,363.209 426.273,365.876 425.5,369.5C 417.188,378.479 408.521,387.146 399.5,395.5C 377.515,375.349 356.348,354.349 336,332.5C 335.534,362.341 335.367,392.341 335.5,422.5C 327.894,416.728 321.06,410.061 315,402.5C 314.538,373.293 314.372,344.293 314.5,315.5C 314.051,313.023 314.717,311.023 316.5,309.5C 318.712,313.11 319.712,312.443 319.5,307.5C 318.448,307.649 317.448,307.483 316.5,307C 319.431,306.239 321.097,304.406 321.5,301.5C 320.178,301.33 319.011,301.663 318,302.5C 317.333,299.5 317.333,296.5 318,293.5C 320.229,296.156 322.062,295.823 323.5,292.5C 325.488,294.147 326.821,293.814 327.5,291.5 Z"/></g>
<g><path style="opacity:1" fill="#c79a6f" d="M 504.5,289.5 C 504.5,290.167 504.5,290.833 504.5,291.5C 498.202,297.297 492.035,303.297 486,309.5C 485.833,341.172 485.333,372.839 484.5,404.5C 477.486,411.681 470.319,418.681 463,425.5C 462.667,395.167 462.333,364.833 462,334.5C 449.661,346.006 437.494,357.673 425.5,369.5C 426.273,365.876 428.439,363.209 432,361.5C 432.483,360.552 432.649,359.552 432.5,358.5C 435.614,357.909 438.114,356.242 440,353.5C 441.589,350.079 443.755,347.079 446.5,344.5C 444.389,343.152 442.555,343.485 441,345.5C 439.278,345.038 437.445,344.872 435.5,345C 434.577,342.959 434.244,340.792 434.5,338.5C 437.833,338.5 441.167,338.5 444.5,338.5C 445.736,334.26 445.069,330.26 442.5,326.5C 440.997,327.052 439.331,327.052 437.5,326.5C 450.473,313.193 463.473,299.86 476.5,286.5C 478.288,286.785 479.955,286.452 481.5,285.5C 484.772,282.895 487.772,279.895 490.5,276.5C 491.768,275.572 493.101,275.405 494.5,276C 490.03,283.195 484.03,287.862 476.5,290C 477.641,292.449 478.641,294.949 479.5,297.5C 479.167,298.167 478.833,298.833 478.5,299.5C 477.738,298.372 477.071,297.205 476.5,296C 471.995,294.436 471.329,295.769 474.5,300C 476.24,301.694 478.24,302.861 480.5,303.5C 480.281,302.325 480.614,301.325 481.5,300.5C 482.396,301.506 483.062,301.506 483.5,300.5C 482.583,297.242 482.249,293.909 482.5,290.5C 487.039,290.322 491.539,290.655 496,291.5C 498.822,290.725 501.656,290.058 504.5,289.5 Z"/></g>
<g><path style="opacity:1" fill="#c09b7b" d="M 311.5,308.5 C 313.083,310.508 314.083,312.841 314.5,315.5C 314.372,344.293 314.538,373.293 315,402.5C 321.06,410.061 327.894,416.728 335.5,422.5C 336.043,422.56 336.376,422.893 336.5,423.5C 335.635,424.583 334.635,424.749 333.5,424C 326.667,417.167 319.833,410.333 313,403.5C 312.826,371.762 312.326,340.095 311.5,308.5 Z"/></g>
</svg>
